<?xml version="1.0" encoding="UTF-8"?>
<svg width="265px" height="232px" viewBox="0 0 265 232" version="1.1" xmlns="http://www.w3.org/2000/svg" xmlns:xlink="http://www.w3.org/1999/xlink">
    <!-- Generator: Sketch 50 (54983) - http://www.bohemiancoding.com/sketch -->
    <title>bug-kid-1 copy 2</title>
    <desc>Created with Sketch.</desc>
    <defs>
        <rect id="path-1" x="0" y="0" width="343" height="298"></rect>
    </defs>
    <g id="Final-Concepts" stroke="none" stroke-width="1" fill="none" fill-rule="evenodd">
        <g id="Visit-V3" transform="translate(-65.000000, -165.000000)">
            <g id="bug-kid-1-copy-2" transform="translate(65.000000, 165.000000)">
                <mask id="mask-2" fill="white">
                    <use xlink:href="#path-1"></use>
                </mask>
                <g id="Mask"></g>
                <circle id="Oval-6" fill="#FFFFFF" mask="url(#mask-2)" cx="90" cy="57" r="175"></circle>
                <g id="NMNH-Type-logo" mask="url(#mask-2)">
                    <g transform="translate(36.000000, 36.000000)" id="Page-1">
                        <g>
                            <polygon id="Fill-27" fill="#00778B" points="0.000288615793 0.650003487 3.05312216 0.650003487 18.5351948 23.0467523 18.6073487 23.0467523 18.6073487 0.650003487 20.9783275 0.650003487 20.9783275 26.2256598 17.9254939 26.2256598 2.4434213 3.82818531 2.37126735 3.82818531 2.37126735 26.2256598 0.000288615793 26.2256598"></polygon>
                            <path d="M36.1012177,3.25125098 L30.1744925,17.2664523 L41.8490013,17.2664523 L36.1012177,3.25125098 Z M34.9878823,0.649930926 L37.4302935,0.649930926 L48.1350532,26.2255872 L45.4761802,26.2255872 L42.7105194,19.4345818 L29.2400988,19.4345818 L26.3669286,26.2255872 L23.8884405,26.2255872 L34.9878823,0.649930926 Z" id="Fill-29" fill="#00778B"></path>
                            <polygon id="Fill-31" fill="#00778B" points="54.2411532 2.81689946 45.5487671 2.81689946 45.5487671 0.650221171 65.3052396 0.650221171 65.3052396 2.81689946 56.6121319 2.81689946 56.6121319 26.2258775 54.2411532 26.2258775"></polygon>
                            <polygon id="Fill-33" fill="#00778B" points="68.4654382 26.2258049 70.836417 26.2258049 70.836417 0.650148609 68.4654382 0.650148609"></polygon>
                            <path d="M77.7694012,13.4374688 C77.7694012,15.0265597 78.0204969,16.5075344 78.52341,17.8818441 C79.026323,19.2539769 79.7449763,20.4461579 80.6779269,21.4576614 C81.6123205,22.4684394 82.7444159,23.2629848 84.0727701,23.8420234 C85.4025674,24.4196108 86.8932679,24.7084045 88.5455933,24.7084045 C90.1986403,24.7084045 91.6886193,24.4196108 93.017695,23.8420234 C94.3467708,23.2629848 95.4781447,22.4684394 96.4118168,21.4576614 C97.3462104,20.4461579 98.0641422,19.2539769 98.5677767,17.8818441 C99.0699682,16.5075344 99.3217855,15.0265597 99.3217855,13.4374688 C99.3217855,11.8491035 99.0699682,10.3674032 98.5677767,8.99454479 C98.0641422,7.62096073 97.3462104,6.43023097 96.4118168,5.41800183 C95.4781447,4.40722391 94.3467708,3.61195284 93.017695,3.03363985 C91.6886193,2.45532686 90.1986403,2.16725878 88.5455933,2.16725878 C86.8932679,2.16725878 85.4025674,2.45532686 84.0727701,3.03363985 C82.7444159,3.61195284 81.6123205,4.40722391 80.6779269,5.41800183 C79.7449763,6.43023097 79.026323,7.62096073 78.52341,8.99454479 C78.0204969,10.3674032 77.7694012,11.8491035 77.7694012,13.4374688 M75.3984225,13.4374688 C75.3984225,11.487023 75.7216722,9.69330942 76.3681715,8.0563281 C77.0146709,6.41789556 77.912266,5.00222599 79.0624,3.810045 C80.2118123,2.61931523 81.5950035,1.68617783 83.211252,1.01135841 C84.8275004,0.337264591 86.6060952,-0.000145122457 88.5455933,-0.000145122457 C90.4850915,-0.000145122457 92.2629648,0.337264591 93.8792132,1.01135841 C95.4961832,1.68617783 96.8786528,2.61931523 98.0287867,3.810045 C99.1781991,5.00222599 100.076516,6.41789556 100.723015,8.0563281 C101.368793,9.69330942 101.692043,11.487023 101.692043,13.4374688 C101.692043,15.3879147 101.368793,17.18961 100.723015,18.8382011 C100.076516,20.4882434 99.1781991,21.9089923 98.0287867,23.1004477 C96.8786528,24.2933543 95.4961832,25.2199611 93.8792132,25.8824452 C92.2629648,26.5442036 90.4850915,26.876534 88.5455933,26.876534 C86.6060952,26.876534 84.8275004,26.5442036 83.211252,25.8824452 C81.5950035,25.2199611 80.2118123,24.2933543 79.0624,23.1004477 C77.912266,21.9089923 77.0146709,20.4882434 76.3681715,18.8382011 C75.7216722,17.18961 75.3984225,15.3879147 75.3984225,13.4374688" id="Fill-35" fill="#00778B"></path>
                            <polygon id="Fill-36" fill="#00778B" points="106.253976 0.650003487 109.30681 0.650003487 124.789604 23.0467523 124.861036 23.0467523 124.861036 0.650003487 127.232736 0.650003487 127.232736 26.2256598 124.17846 26.2256598 108.697109 3.82818531 108.625676 3.82818531 108.625676 26.2256598 106.253976 26.2256598"></polygon>
                            <path d="M142.354905,3.25125098 L136.42818,17.2664523 L148.10341,17.2664523 L142.354905,3.25125098 Z M141.24157,0.649930926 L143.683981,0.649930926 L154.389462,26.2255872 L151.730589,26.2255872 L148.964928,19.4345818 L135.493786,19.4345818 L132.620616,26.2255872 L130.142128,26.2255872 L141.24157,0.649930926 Z" id="Fill-37" fill="#00778B"></path>
                            <polygon id="Fill-38" fill="#00778B" points="157.298709 0.650003487 159.668967 0.650003487 159.668967 24.0582559 171.52386 24.0582559 171.52386 26.2256598 157.298709 26.2256598"></polygon>
                            <polygon id="Fill-39" fill="#00778B" points="0.000288615793 34.4398811 3.55603518 34.4398811 12.8234883 55.8969621 22.0909413 34.4398811 25.4684677 34.4398811 25.4684677 60.0155374 23.0974889 60.0155374 23.0974889 37.4736661 23.025335 37.4736661 13.3271228 60.0155374 12.2844983 60.0155374 2.44269976 37.4736661 2.37054581 37.4736661 2.37054581 60.0155374 0.000288615793 60.0155374"></polygon>
                            <path d="M49.4989793,50.2254313 C49.4989793,51.5990154 49.3431268,52.9109224 49.0321432,54.1633292 C48.7211597,55.4150104 48.1994867,56.5244716 47.4692887,57.4873591 C46.7390908,58.4502466 45.7816079,59.2201212 44.595397,59.7977086 C43.4106291,60.3760216 41.9560056,60.6655409 40.2308047,60.6655409 C38.5070468,60.6655409 37.0524232,60.3760216 35.8669339,59.7977086 C34.6814445,59.2201212 33.7232401,58.4502466 32.9930421,57.4873591 C32.2621226,56.5244716 31.7418927,55.4150104 31.4309092,54.1633292 C31.1192041,52.9109224 30.9640731,51.5990154 30.9640731,50.2254313 L30.9640731,34.439736 L33.3350518,34.439736 L33.3350518,49.6108377 C33.3350518,50.527286 33.4180289,51.5032345 33.585426,52.5379577 C33.7535447,53.5726808 34.0825667,54.5362939 34.5732136,55.4280714 C35.0638604,56.3183977 35.758703,57.0527173 36.6570196,57.6317559 C37.5553363,58.2093433 38.7465979,58.4974114 40.2308047,58.4974114 C41.7164544,58.4974114 42.9077161,58.2093433 43.8053112,57.6317559 C44.7036279,57.0527173 45.3970273,56.3183977 45.8891173,55.4280714 C46.3797641,54.5362939 46.7095077,53.5726808 46.8761833,52.5379577 C47.044302,51.5032345 47.1287221,50.527286 47.1287221,49.6108377 L47.1287221,34.439736 L49.4989793,34.439736 L49.4989793,50.2254313 Z" id="Fill-40" fill="#00778B"></path>
                            <path d="M55.9287619,55.2834569 C56.5507289,56.3660704 57.3588532,57.1736769 58.3531346,57.7033738 C59.3466944,58.2330708 60.4787899,58.4986449 61.7472563,58.4986449 C62.5380635,58.4986449 63.2798061,58.3781933 63.9746486,58.13729 C64.6687696,57.8971123 65.2734197,57.558977 65.7885989,57.1257865 C66.3030566,56.6911447 66.7100048,56.1687039 67.0101652,55.5548359 C67.3088826,54.9395166 67.4589628,54.2480081 67.4589628,53.4774079 C67.4589628,52.5856304 67.2742487,51.8520364 66.9026559,51.2737234 C66.5303415,50.6954104 66.0346439,50.2194087 65.4119553,49.846444 C64.7885452,49.4727537 64.0886519,49.1542099 63.3108323,48.8886358 C62.5322912,48.6245129 61.7299393,48.3596644 60.9037766,48.0948159 C60.0768924,47.8299675 59.275262,47.5281127 58.4974425,47.1921543 C57.7181798,46.8547445 57.0182865,46.4142979 56.3948764,45.8722655 C55.7721878,45.3309587 55.2757687,44.65106 54.9048974,43.8318438 C54.5333045,43.0133531 54.3485904,42.0018496 54.3485904,40.7980588 C54.3485904,39.6661036 54.56866,38.660405 55.0124068,37.7809629 C55.455432,36.9022464 56.0543098,36.1672012 56.8090401,35.5772784 C57.5630488,34.9873556 58.4310608,34.5425553 59.4123545,34.2407005 C60.3943697,33.9402971 61.4240066,33.7900953 62.5019866,33.7900953 C63.8909501,33.7900953 65.1781765,34.0368035 66.3636659,34.5287686 C67.5484337,35.0243618 68.5722982,35.8486574 69.4352594,37.0045577 L67.3875304,38.4855324 C66.7886526,37.6423709 66.0880378,37.0103626 65.2864074,36.5880563 C64.483334,36.1672012 63.5316234,35.956048 62.4305542,35.956048 C61.6635577,35.956048 60.9340813,36.0598105 60.2392388,36.262982 C59.5443962,36.4683303 58.9397462,36.7687337 58.4252885,37.1663693 C57.9101093,37.5647304 57.4966672,38.0646773 57.1856837,38.6662099 C56.8747002,39.2684681 56.7188476,39.9788425 56.7188476,40.7980588 C56.7188476,42.0744108 57.0420973,43.054713 57.6878752,43.7418678 C58.3350961,44.4282971 59.1439418,44.9703294 60.1136909,45.3672394 C61.08344,45.7648749 62.1368876,46.1131688 63.2747554,46.4142979 C64.4119016,46.715427 65.4660708,47.119593 66.4358198,47.6246192 C67.4048473,48.1310966 68.2136931,48.8342149 68.8601925,49.7376022 C69.5066918,50.6417151 69.8299415,51.8868658 69.8299415,53.4774079 C69.8299415,54.6333083 69.6149228,55.6571472 69.1834422,56.5467479 C68.7519615,57.439251 68.1718438,58.1909853 67.4409243,58.8055789 C66.7100048,59.4187213 65.8658036,59.8838388 64.9083207,60.1965777 C63.9508378,60.508591 62.9565564,60.6653232 61.9269196,60.6653232 C60.2507834,60.6653232 58.7066889,60.3707246 57.2939146,59.7800762 C55.8804188,59.190879 54.6711186,58.1975158 53.6652926,56.8007122 L55.9287619,55.2834569 Z" id="Fill-41" fill="#00778B"></path>
                            <polygon id="Fill-42" fill="#00778B" points="74.4639567 34.4398811 90.0181833 34.4398811 90.0181833 36.6065594 76.8342139 36.6065594 76.8342139 45.7100912 89.191299 45.7100912 89.191299 47.8789463 76.8342139 47.8789463 76.8342139 57.8481335 90.5932502 57.8481335 90.5932502 60.0155374 74.4639567 60.0155374"></polygon>
                            <path d="M113.079018,50.2254313 C113.079018,51.5990154 112.922444,52.9109224 112.61146,54.1633292 C112.300477,55.4150104 111.779525,56.5244716 111.049327,57.4873591 C110.319129,58.4502466 109.360925,59.2201212 108.175436,59.7977086 C106.989946,60.3760216 105.535323,60.6655409 103.810843,60.6655409 C102.087086,60.6655409 100.632462,60.3760216 99.446251,59.7977086 C98.2607617,59.2201212 97.3032788,58.4502466 96.5723593,57.4873591 C95.8414398,56.5244716 95.3219314,55.4150104 95.0102263,54.1633292 C94.6985213,52.9109224 94.5433903,51.5990154 94.5433903,50.2254313 L94.5433903,34.439736 L96.914369,34.439736 L96.914369,49.6108377 C96.914369,50.527286 96.9980676,51.5032345 97.1654648,52.5379577 C97.3335834,53.5726808 97.6618839,54.5362939 98.1532523,55.4280714 C98.6438991,56.3183977 99.3387417,57.0527173 100.237058,57.6317559 C101.135375,58.2093433 102.326637,58.4974114 103.810843,58.4974114 C105.295772,58.4974114 106.487033,58.2093433 107.384628,57.6317559 C108.283667,57.0527173 108.977066,56.3183977 109.468434,55.4280714 C109.959803,54.5362939 110.288103,53.5726808 110.456222,52.5379577 C110.624341,51.5032345 110.707318,50.527286 110.707318,49.6108377 L110.707318,34.439736 L113.079018,34.439736 L113.079018,50.2254313 Z" id="Fill-43" fill="#00778B"></path>
                            <polygon id="Fill-44" fill="#00778B" points="118.574407 34.4398811 122.130154 34.4398811 131.397607 55.8969621 140.665781 34.4398811 144.042586 34.4398811 144.042586 60.0155374 141.671607 60.0155374 141.671607 37.4736661 141.599453 37.4736661 131.901241 60.0155374 130.858617 60.0155374 121.01754 37.4736661 120.944664 37.4736661 120.944664 60.0155374 118.574407 60.0155374"></polygon>
                            <path d="M160.206008,58.7868581 C162.145507,57.956032 164.121082,54.1277016 164.121082,49.5033745 C164.121082,46.5777058 162.864881,45.1685667 161.211834,45.1685667 C160.672844,45.1685667 160.242085,45.3129636 159.846682,45.493641 C158.446895,46.107509 156.039839,49.070184 156.039839,54.6327278 C156.039839,57.3058834 157.153175,59.0038162 159.056596,59.0038162 C159.488077,59.0038162 159.846682,58.931255 160.206008,58.7868581 M153.022361,54.8134052 C153.022361,50.1179681 155.500849,46.5414252 158.481529,44.9523342 C159.775249,44.265905 161.24719,43.7964339 162.361247,43.7964339 C165.342648,43.7964339 167.13856,45.8549959 167.13856,49.4315389 C167.13856,52.5378851 165.809484,56.0788731 163.294919,58.1729901 C161.750824,59.4732873 159.775249,60.4492359 157.763597,60.4492359 C154.351437,60.4492359 153.022361,57.739074 153.022361,54.8134052" id="Fill-45" fill="#00778B"></path>
                            <path d="M172.239627,44.3738036 C172.778617,41.6288123 173.640857,38.9912116 175.257105,37.1851626 C176.910152,35.3435587 178.957881,34.2950489 180.393745,34.2950489 C181.651388,34.2950489 182.58506,35.1984362 182.549705,35.8485848 C182.549705,36.3906172 182.046792,37.0414914 181.651388,37.3302851 C181.364216,37.5465176 181.004167,37.5835238 180.753072,37.2940045 C179.999063,36.4980078 179.244333,36.0292623 178.489602,36.0292623 C177.160527,36.0292623 176.08399,37.6901888 175.00601,44.3738036 L179.064669,44.3738036 L178.309939,45.4941489 L174.718837,45.8555039 C174.071616,49.8289567 173.676934,52.0326413 172.886127,56.0416491 C171.629205,62.2557928 170.300129,64.9645034 168.324554,67.0237911 C166.743661,68.7209983 165.234922,69.3000369 164.265173,69.3000369 C163.223992,69.3000369 162.002425,68.5758758 162.038502,67.7457753 C162.038502,67.2755786 162.469261,66.6624362 163.008251,66.22852 C163.295424,65.976007 163.475809,66.011562 163.690106,66.22852 C164.265173,66.7698268 165.307798,67.1311817 165.953575,67.1311817 C166.563998,67.1311817 167.139065,66.8431137 167.498391,66.4091975 C167.965228,65.8671651 168.827467,64.3499098 170.012957,57.342672 C170.874475,52.3577156 171.342032,49.3224794 171.953176,45.782217 L168.971054,45.782217 L168.863544,45.3860327 L169.940803,44.3738036 L172.239627,44.3738036 Z" id="Fill-46" fill="#00778B"></path>
                            <polygon id="Fill-47" fill="#00778B" points="0.0256146516 68.2296862 7.64146387 68.2296862 18.453733 86.0021079 18.5251654 86.0021079 18.5251654 68.2296862 24.128641 68.2296862 24.128641 93.8046169 16.8014076 93.8046169 5.7012442 75.598279 5.6298118 75.598279 5.6298118 93.8046169 0.0256146516 93.8046169"></polygon>
                            <path d="M39.0719401,75.6707676 L35.9830296,83.6176734 L42.1969276,83.6176734 L39.0719401,75.6707676 Z M36.9167017,68.2296136 L41.5504282,68.2296136 L52.6145146,93.8045443 L46.2916641,93.8045443 L44.1010703,88.3863973 L34.2224733,88.3863973 L32.1033118,93.8045443 L25.9247692,93.8045443 L36.9167017,68.2296136 Z" id="Fill-48" fill="#00778B"></path>
                            <polygon id="Fill-49" fill="#00778B" points="56.0266748 73.2140621 48.7701523 73.2140621 48.7701523 68.2298313 68.8859514 68.2298313 68.8859514 73.2140621 61.6301504 73.2140621 61.6301504 93.804762 56.0266748 93.804762"></polygon>
                            <path d="M92.4144159,83.9430379 C92.4144159,85.4602932 92.187131,86.8570969 91.7318395,88.1334489 C91.2772697,89.4105265 90.5997441,90.5185365 89.702149,91.4567532 C88.8045539,92.3956955 87.6847246,93.1307407 86.3433827,93.6611633 C85.0027623,94.1901347 83.4579463,94.4549831 81.7096562,94.4549831 C79.9375552,94.4549831 78.3811945,94.1901347 77.0398526,93.6611633 C75.6985107,93.1307407 74.579403,92.3956955 73.6810864,91.4567532 C72.7834912,90.5185365 72.1059657,89.4105265 71.6521173,88.1334489 C71.1968259,86.8570969 70.9688194,85.4602932 70.9688194,83.9430379 L70.9688194,68.2291782 L76.5730166,68.2291782 L76.5730166,83.7268055 C76.5730166,84.5206253 76.6985645,85.2563962 76.9496602,85.9297644 C77.202199,86.6045838 77.5543103,87.1887017 78.0096017,87.6821181 C78.4641716,88.1755344 79.0096554,88.5615601 79.6438886,88.8380184 C80.2788434,89.1152023 80.967192,89.2530687 81.7096562,89.2530687 C82.4513987,89.2530687 83.1346966,89.1152023 83.7573852,88.8380184 C84.3793522,88.5615601 84.9183422,88.1755344 85.3736336,87.6821181 C85.8282035,87.1887017 86.1817579,86.6045838 86.4335751,85.9297644 C86.6846709,85.2563962 86.8102187,84.5206253 86.8102187,83.7268055 L86.8102187,68.2291782 L92.4144159,68.2291782 L92.4144159,83.9430379 Z" id="Fill-50" fill="#00778B"></path>
                            <path d="M100.99886,78.813467 L104.304232,78.813467 C104.806424,78.813467 105.339641,78.7953267 105.902442,78.7597717 C106.464521,78.7234911 106.973928,78.6153748 107.42922,78.4346974 C107.883789,78.2540199 108.260433,77.9710311 108.560593,77.585731 C108.860754,77.1997053 109.010113,76.6583985 109.010113,75.9596339 C109.010113,75.3102109 108.878071,74.7913981 108.61543,74.4068236 C108.350625,74.0215235 108.015831,73.7261993 107.608161,73.5215766 C107.201935,73.3176795 106.733655,73.1776364 106.207653,73.1065264 C105.680208,73.0332395 105.16575,72.9969589 104.662837,72.9969589 L100.99886,72.9969589 L100.99886,78.813467 Z M95.3953841,68.2289606 L105.237904,68.2289606 C106.531624,68.2289606 107.758242,68.3559427 108.920642,68.6091814 C110.081599,68.8609689 111.098969,69.2825496 111.973475,69.873198 C112.84726,70.4631208 113.542102,71.2576663 114.057281,72.25756 C114.571739,73.2567281 114.828607,74.50333 114.828607,75.9959145 C114.828607,77.8012379 114.362492,79.3373591 113.42882,80.6021013 C112.494427,81.8661179 111.129274,82.6671939 109.333362,83.003878 L115.799078,93.8046169 L109.081545,93.8046169 L103.765242,83.5814653 L100.99886,83.5814653 L100.99886,93.8046169 L95.3953841,93.8046169 L95.3953841,68.2289606 Z" id="Fill-51" fill="#00778B"></path>
                            <path d="M128.44348,75.6707676 L125.354569,83.6176734 L131.567746,83.6176734 L128.44348,75.6707676 Z M126.288241,68.2296136 L130.921968,68.2296136 L141.985333,93.8045443 L135.663204,93.8045443 L133.471888,88.3863973 L123.593291,88.3863973 L121.47413,93.8045443 L115.295587,93.8045443 L126.288241,68.2296136 Z" id="Fill-52" fill="#00778B"></path>
                            <polygon id="Fill-53" fill="#00778B" points="143.996696 68.2296862 149.600893 68.2296862 149.600893 88.6027024 159.981682 88.6027024 159.981682 93.8046169 143.996696 93.8046169"></polygon>
                            <polygon id="Fill-54" fill="#00778B" points="0.0256146516 102.018838 5.6298118 102.018838 5.6298118 111.55556 16.5142349 111.55556 16.5142349 102.018838 22.1169889 102.018838 22.1169889 127.594494 16.5142349 127.594494 16.5142349 116.540517 5.6298118 116.540517 5.6298118 127.594494 0.0256146516 127.594494"></polygon>
                            <polygon id="Fill-55" fill="#00778B" points="25.5295099 127.594567 31.133707 127.594567 31.133707 102.018911 25.5295099 102.018911"></polygon>
                            <path d="M48.0517154,108.268029 C47.5957024,107.690442 46.9802293,107.263056 46.2016882,106.985146 C45.4224255,106.710139 44.6871768,106.570096 43.9923343,106.570096 C43.585386,106.570096 43.1661716,106.619438 42.7354125,106.714493 C42.3039319,106.810999 41.8969836,106.961927 41.5138462,107.165824 C41.1299872,107.371898 40.8197252,107.642551 40.5801741,107.979961 C40.3399014,108.316645 40.2201259,108.72589 40.2201259,109.207697 C40.2201259,109.977571 40.5080201,110.56822 41.0830871,110.97674 C41.6581541,111.387436 42.3818582,111.73573 43.256364,112.025249 C44.1301483,112.314043 45.0703143,112.603562 46.0761403,112.89163 C47.0812448,113.18115 48.0206892,113.590395 48.895195,114.120092 C49.7697009,114.650515 50.4941265,115.360889 51.0691935,116.251215 C51.6435389,117.142267 51.9307116,118.335174 51.9307116,119.827758 C51.9307116,121.249233 51.6673497,122.489304 51.1406259,123.549424 C50.6139021,124.609543 49.9017426,125.487534 49.003426,126.184847 C48.1051093,126.884338 47.0639278,127.401699 45.8784385,127.739109 C44.6929491,128.075793 43.4410781,128.244135 42.1242686,128.244135 C40.4726647,128.244135 38.9393933,127.991622 37.526619,127.48587 C36.1131232,126.980119 34.7970351,126.161628 33.5754688,125.029673 L37.562696,120.622304 C38.1370414,121.39363 38.861467,121.989357 39.7359729,122.410212 C40.6097572,122.832519 41.5138462,123.042946 42.4475183,123.042946 C42.9020881,123.042946 43.3638734,122.988525 43.8307094,122.880409 C44.2975455,122.771567 44.7167599,122.609756 45.0883527,122.392798 C45.459224,122.17584 45.7579414,121.899381 45.9859479,121.561246 C46.2132328,121.224562 46.3265145,120.828378 46.3265145,120.369791 C46.3265145,119.59919 46.034291,118.991127 45.4476794,118.544876 C44.8603463,118.100075 44.1236545,117.72058 43.2383255,117.407841 C42.352275,117.094377 41.3933491,116.780912 40.3644338,116.468899 C39.3347969,116.155434 38.3765925,115.733854 37.490542,115.204882 C36.6052131,114.67446 35.8677997,113.975695 35.2819097,113.109314 C34.693855,112.242933 34.4016315,111.097917 34.4016315,109.677168 C34.4016315,108.30431 34.6707657,107.101244 35.2097557,106.06507 C35.7480242,105.029621 36.4666775,104.162515 37.3649941,103.46375 C38.2633108,102.765711 39.29872,102.241093 40.4726647,101.892074 C41.6451663,101.543054 42.8544665,101.368907 44.0998437,101.368907 C45.5371503,101.368907 46.9253923,101.572804 48.2674557,101.982775 C49.6080761,102.392021 50.8173762,103.079175 51.8953562,104.041337 L48.0517154,108.268029 Z" id="Fill-56" fill="#00778B"></path>
                            <polygon id="Fill-57" fill="#00778B" points="60.2643483 107.00394 53.0085473 107.00394 53.0085473 102.018983 73.1243465 102.018983 73.1243465 107.00394 65.8685455 107.00394 65.8685455 127.59464 60.2643483 127.59464"></polygon>
                            <path d="M78.8348264,114.806376 C78.8348264,116.010892 79.0209836,117.113098 79.3918549,118.112266 C79.7627262,119.112159 80.2952223,119.97854 80.9900648,120.71286 C81.6849074,121.447905 82.5175639,122.018962 83.487313,122.428933 C84.457062,122.838178 85.5400928,123.043527 86.7378483,123.043527 C87.9348823,123.043527 89.0186346,122.838178 89.9891052,122.428933 C90.9588543,122.018962 91.7900678,121.447905 92.4849103,120.71286 C93.1797528,119.97854 93.712249,119.112159 94.0838418,118.112266 C94.4547131,117.113098 94.6401487,116.010892 94.6401487,114.806376 C94.6401487,113.627256 94.4547131,112.53013 94.0838418,111.519352 C93.712249,110.507849 93.1797528,109.634937 92.4849103,108.900618 C91.7900678,108.166298 90.9588543,107.594516 89.9891052,107.184545 C89.0186346,106.775299 87.9348823,106.569951 86.7378483,106.569951 C85.5400928,106.569951 84.457062,106.775299 83.487313,107.184545 C82.5175639,107.594516 81.6849074,108.166298 80.9900648,108.900618 C80.2952223,109.634937 79.7627262,110.507849 79.3918549,111.519352 C79.0209836,112.53013 78.8348264,113.627256 78.8348264,114.806376 M73.016332,114.806376 C73.016332,112.760149 73.3568987,110.904759 74.039475,109.243832 C74.7220514,107.58218 75.6737619,106.167962 76.8953283,104.999 C78.1168946,103.83149 79.5657459,102.934633 81.2418821,102.306979 C82.9180183,101.681501 84.7492855,101.368762 86.7378483,101.368762 C88.7249681,101.368762 90.5576783,101.681501 92.2338146,102.306979 C93.9106723,102.934633 95.3580805,103.83149 96.5803684,104.999 C97.8012132,106.167962 98.7529238,107.58218 99.4362216,109.243832 C100.118798,110.904759 100.460086,112.760149 100.460086,114.806376 C100.460086,116.853328 100.118798,118.707993 99.4362216,120.369645 C98.7529238,122.031298 97.8012132,123.446242 96.5803684,124.614477 C95.3580805,125.782713 93.9106723,126.67957 92.2338146,127.305773 C90.5576783,127.931251 88.7249681,128.244716 86.7378483,128.244716 C84.7492855,128.244716 82.9180183,127.931251 81.2418821,127.305773 C79.5657459,126.67957 78.1168946,125.782713 76.8953283,124.614477 C75.6737619,123.446242 74.7220514,122.031298 74.039475,120.369645 C73.3568987,118.707993 73.016332,116.853328 73.016332,114.806376" id="Fill-58" fill="#00778B"></path>
                            <path d="M108.613122,112.603345 L111.918494,112.603345 C112.420685,112.603345 112.953903,112.585204 113.517425,112.548924 C114.078783,112.512643 114.58819,112.404527 115.043481,112.224575 C115.498051,112.043898 115.875416,111.760183 116.174855,111.374883 C116.474294,110.989583 116.623653,110.447551 116.623653,109.748786 C116.623653,109.098637 116.492333,108.581276 116.228971,108.195976 C115.964887,107.811401 115.630815,107.515351 115.223145,107.310729 C114.816196,107.106832 114.348639,106.967514 113.822637,106.895678 C113.29447,106.823117 112.780012,106.786837 112.277821,106.786837 L108.613122,106.786837 L108.613122,112.603345 Z M103.009646,102.018838 L112.852888,102.018838 C114.145165,102.018838 115.372503,102.145095 116.534182,102.399059 C117.695861,102.650846 118.713231,103.072427 119.587737,103.663076 C120.4608,104.252998 121.155642,105.047544 121.671543,106.046712 C122.185279,107.04588 122.442869,108.293208 122.442869,109.785067 C122.442869,111.591115 121.976754,113.127237 121.043082,114.391253 C120.108689,115.65527 118.743536,116.457797 116.947624,116.79303 L123.413339,127.594494 L116.695807,127.594494 L111.379504,117.371343 L108.613122,117.371343 L108.613122,127.594494 L103.009646,127.594494 L103.009646,102.018838 Z" id="Fill-59" fill="#00778B"></path>
                            <polygon id="Fill-60" fill="#00778B" points="130.453761 116.684914 120.898413 102.018838 127.867763 102.018838 133.255499 111.591115 138.967205 102.018838 145.612584 102.018838 136.057958 116.684914 136.057958 127.594494 130.453761 127.594494"></polygon>
                        </g>
                    </g>
                </g>
            </g>
        </g>
    </g>
</svg>